# xmcd
#
# Track frame offsets: 
#        150
#        11956
#        23012
#        34409
#        53434
#        71849
#        89940
#        105257
#        114569
#        127396
#        142257
#        160504
#        178473
#        188180
#        200256
#        215128
#
# Disc length: 3055 seconds
#
# Revision: 1
# Processed by: cddbd v1.5.2PL0 Copyright (c) Steve Scherf et al.
# Submitted via: ExactAudioCopy v1.0b3
#
DISCID=f80bed10
DTITLE=Ann Licater - Following The Call
DYEAR=2007
DGENRE=New Age
TTITLE0=Following The Call
TTITLE1=Numinous Gateway
TTITLE2=Spirit Dance
TTITLE3=Ancient Echoes
TTITLE4=Sacred Moon
TTITLE5=Unfolding Mystery
TTITLE6=Wind And Butterfly
TTITLE7=Three Graces
TTITLE8=Mystic Messenger
TTITLE9=Dream Time
TTITLE10=Initiation
TTITLE11=Beloved
TTITLE12=Winged Prayer
TTITLE13=Emergence
TTITLE14=Old Soul
TTITLE15=Full Circle
EXTD=YEAR: 2007
EXTT0=
EXTT1=
EXTT2=
EXTT3=
EXTT4=
EXTT5=
EXTT6=
EXTT7=
EXTT8=
EXTT9=
EXTT10=
EXTT11=
EXTT12=
EXTT13=
EXTT14=
EXTT15=
PLAYORDER=
